<?xml version="1.0" standalone="no"?>
<!DOCTYPE svg PUBLIC "-//W3C//DTD SVG 20010904//EN"
 "http://www.w3.org/TR/2001/REC-SVG-20010904/DTD/svg10.dtd">
<svg version="1.0" xmlns="http://www.w3.org/2000/svg"
 width="500.000000pt" height="500.000000pt" viewBox="0 0 500.000000 500.000000"
 preserveAspectRatio="xMidYMid meet">

<g transform="translate(0.000000,500.000000) scale(0.100000,-0.100000)"
fill="#000000" stroke="none">
<path d="M2338 3980 c-80 -14 -199 -58 -280 -103 -213 -117 -371 -313 -444
-552 -25 -81 -28 -105 -28 -250 -1 -137 2 -171 22 -238 47 -164 126 -299 244
-417 358 -358 938 -358 1296 0 118 118 197 254 245 420 19 64 22 99 21 235 0
145 -3 169 -28 250 -92 302 -313 527 -616 626 -85 28 -110 32 -240 35 -80 1
-166 -1 -192 -6z m377 -80 c278 -71 510 -289 598 -560 55 -168 59 -342 12
-504 -72 -250 -233 -437 -468 -546 -124 -57 -210 -75 -357 -75 -143 1 -234 19
-347 71 -299 136 -486 407 -509 738 -25 364 200 711 550 847 159 62 353 73
521 29z"/>
<path d="M2434 3722 c9 -27 -20 -48 -94 -67 -158 -40 -302 -155 -378 -301 -61
-120 -75 -191 -68 -349 6 -126 7 -133 46 -212 60 -122 121 -183 238 -239 177
-84 314 -103 466 -64 116 29 190 73 281 165 124 124 176 248 176 420 0 145
-38 257 -125 372 -26 34 -70 79 -99 99 -68 49 -79 63 -72 95 6 25 2 28 -57 52
-86 34 -155 47 -244 47 -69 0 -75 -2 -70 -18z m91 -128 c19 -19 16 -44 -5 -54
-8 -5 -49 -13 -90 -19 -101 -15 -185 -59 -255 -132 -159 -166 -173 -406 -35
-590 27 -36 67 -78 88 -93 24 -16 42 -38 45 -54 3 -15 9 -36 13 -46 13 -34
-94 32 -162 99 -130 128 -186 330 -139 504 55 207 242 368 460 394 58 7 64 7
80 -9z m115 -343 c115 -92 112 -271 -6 -354 -48 -34 -115 -52 -126 -34 -12 19
-9 57 4 57 34 0 100 45 118 81 40 78 16 157 -63 208 -35 23 -48 56 -30 75 14
13 67 -4 103 -33z m-422 11 l23 -18 -22 -49 c-44 -98 -22 -235 52 -319 60 -68
135 -101 229 -100 90 0 147 23 213 83 41 38 45 39 65 25 12 -8 22 -21 22 -27
0 -24 -85 -96 -145 -124 -53 -25 -71 -28 -160 -28 -93 0 -104 3 -160 32 -163
85 -247 267 -200 429 16 57 44 114 55 114 3 0 15 -8 28 -18z"/>
<path d="M3391 3451 c51 -122 72 -231 73 -376 1 -151 -17 -244 -71 -375 -96
-229 -301 -436 -522 -525 -147 -60 -339 -83 -516 -63 -44 5 -52 4 -30 -3 57
-18 180 -26 260 -17 244 26 439 115 605 278 123 120 204 256 257 427 24 80 27
103 27 258 0 135 -3 183 -18 235 -22 82 -75 218 -86 225 -4 3 5 -26 21 -64z"/>
<path d="M2120 2170 c8 -5 20 -10 25 -10 6 0 3 5 -5 10 -8 5 -19 10 -25 10 -5
0 -3 -5 5 -10z"/>
<path d="M2215 2135 c17 -8 41 -14 55 -14 l25 1 -25 7 c-14 4 -38 11 -55 14
l-30 6 30 -14z"/>
</g>
</svg>
